# xmcd CD database file
#
# Track frame offsets:
#	150
#	16237
#	37968
#	54701
#	74340
#	91686
#	105713
#	123334
#	134777
#	158379
#	171315
#	185542
#	199701
#
# Disc length: 2867 seconds
#
# Revision: 0
# Processed by: cddbd v1.4PL0 Copyright (c) Steve Scherf et al.
# Submitted via: CDex 1.40Beta6
#
DISCID=ac0b310d
DTITLE=Dixie Chicks - Fly And Stuff
DYEAR=2001
DGENRE=Country
TTITLE0=Without You
TTITLE1=Cowboy Take Me Away
TTITLE2=Sin Wagon
TTITLE3=Goodbye Earl
TTITLE4=Hello Mr. Heartache
TTITLE5=If I Fall
TTITLE6=Ready To Run
TTITLE7=Sometimes You Gotta Dance
TTITLE8=Cold Day In July
TTITLE9=Don't Waste Your Heart
TTITLE10=Let Him Fly
TTITLE11=You Can't Hurry Love
TTITLE12=Pink Toenails
EXTD=
EXTT0=
EXTT1=
EXTT2=
EXTT3=
EXTT4=
EXTT5=
EXTT6=
EXTT7=
EXTT8=
EXTT9=
EXTT10=
EXTT11=
EXTT12=
PLAYORDER=
